<svg xmlns="http://www.w3.org/2000/svg" version="1.1" xmlns:xlink="http://www.w3.org/1999/xlink" width="1265" height="1145"><svg width="1265" height="1145" viewBox="0 0 1265 1145" fill="none" xmlns="http://www.w3.org/2000/svg">
<path d="M830.065 1126.55C841.261 1137.85 856.492 1144.2 872.38 1144.2H1207.1C1231.35 1144.2 1245.28 1116.84 1230.36 1097.68C872.68 638.582 304.71 529.07 32.4285 531.444C16.4321 531.584 3.88635 544.802 3.88635 560.839V1114.31C3.88635 1130.82 17.2371 1144.2 33.7058 1144.2H302.609C319.078 1144.2 332.429 1130.82 332.429 1114.31V696.773C332.429 670.091 364.65 656.775 383.405 675.706L830.065 1126.55Z" fill="#D6AD75"></path>
<path d="M438.823 19.5786C427.627 8.27795 412.396 1.92285 396.509 1.92285H61.7893C37.543 1.92285 23.608 29.2856 38.5327 48.4423C396.208 507.542 964.178 617.054 1236.46 614.68C1252.46 614.54 1265 601.322 1265 585.285V31.8174C1265 15.3071 1251.65 1.92285 1235.18 1.92285H966.279C949.81 1.92285 936.459 15.3071 936.459 31.8174V449.351C936.459 476.033 904.238 489.349 885.483 470.418L438.823 19.5786Z" fill="#D6AD75"></path>
<path d="M826.179 1126.55C837.375 1137.85 852.606 1144.2 868.493 1144.2H1203.21C1227.46 1144.2 1241.39 1116.84 1226.47 1097.68C868.793 638.582 300.824 529.07 28.5421 531.444C12.5458 531.584 0 544.802 0 560.839V1114.31C0 1130.82 13.3507 1144.2 29.8195 1144.2H298.723C315.192 1144.2 328.542 1130.82 328.542 1114.31V696.773C328.542 670.091 360.763 656.775 379.519 675.706L826.179 1126.55Z" fill="#D6AD75"></path>
<path d="M438.766 17.6558C427.57 6.35512 412.339 0 396.452 0H61.7323C37.486 0 23.5511 27.3627 38.4757 46.5194C396.151 505.619 964.121 615.131 1236.4 612.757C1252.4 612.617 1264.94 599.399 1264.94 583.362V29.8945C1264.94 13.3842 1251.59 0 1235.13 0H966.222C949.753 0 936.402 13.3842 936.402 29.8945V447.428C936.402 474.111 904.182 487.426 885.426 468.495L438.766 17.6558Z" fill="#7C947A"></path>
</svg><style>@media (prefers-color-scheme: light) { :root { filter: none; } }
@media (prefers-color-scheme: dark) { :root { filter: none; } }
</style></svg>